<svg xmlns="http://www.w3.org/2000/svg" viewBox="0 0 245.49 241.27"><defs><style>.cls-1{fill:#be1e2d;}.cls-2,.cls-3{fill:#fff;}.cls-2{stroke:#fff;stroke-miterlimit:10;stroke-width:0.75px;}.cls-3{font-size:52.01px;font-family:Phosphate-Inline, Phosphate;}</style></defs><title>smilebusters</title><g id="Layer_3" data-name="Layer 3"><rect class="cls-1" width="245.49" height="241.27"/></g><g id="Layer_1" data-name="Layer 1"><path class="cls-2" d="M68.06,76.6V156q0,14,8.72,23.25,12.91,14,43.57,14,36.75,0,50-15.12,7.11-8.2,7.11-22.11V76.6h29v72.11q0,23.68-10.56,36.44-19.38,23.25-73.17,23.25t-73-23.25Q39.09,172.4,39.1,148.71V76.6Z"/><path class="cls-2" d="M72.71,76.44H93.37a5.47,5.47,0,0,1,5.47,5.47v59.52a5.5,5.5,0,0,1-5.5,5.5H72.71a0,0,0,0,1,0,0V76.44A0,0,0,0,1,72.71,76.44Z"/><path class="cls-2" d="M146.78,76.6h20.66a5.47,5.47,0,0,1,5.47,5.47v59.52a5.5,5.5,0,0,1-5.5,5.5H146.78a0,0,0,0,1,0,0V76.6A0,0,0,0,1,146.78,76.6Z" transform="translate(319.7 223.68) rotate(180)"/><text class="cls-3" transform="translate(39.1 73.44) scale(0.54 1)">Smilebusters</text></g></svg>