<svg xmlns="http://www.w3.org/2000/svg" viewBox="0 0 245.49 241.27">
    <defs>
        <style>
            .cls-1{fill:#be1e2d;}.cls-2,.cls-3{fill:#fff;}.cls-2{stroke:#fff;stroke-miterlimit:10;stroke-width:0.75px;}
        </style>
    </defs>
    <title>smilebusters_outline</title>
    <g id="Layer_3" data-name="Layer 3">
        <rect class="cls-1" width="245.49" height="241.27"/>
    </g>
    <g id="Layer_1" data-name="Layer 1">
        <path class="cls-2"
              d="M68.06,76.6V156q0,14,8.72,23.25,12.91,14,43.57,14,36.75,0,50-15.12,7.11-8.2,7.11-22.11V76.6h29v72.11q0,23.68-10.56,36.44-19.38,23.25-73.17,23.25t-73-23.25Q39.09,172.4,39.1,148.71V76.6Z"/>
        <path class="cls-2"
              d="M72.71,76.44H93.37a5.47,5.47,0,0,1,5.47,5.47v59.52a5.5,5.5,0,0,1-5.5,5.5H72.71a0,0,0,0,1,0,0V76.44A0,0,0,0,1,72.71,76.44Z"/>
        <path class="cls-2"
              d="M146.78,76.6h20.66a5.47,5.47,0,0,1,5.47,5.47v59.52a5.5,5.5,0,0,1-5.5,5.5H146.78a0,0,0,0,1,0,0V76.6A0,0,0,0,1,146.78,76.6Z"
              transform="translate(319.7 223.68) rotate(180)"/>
        <path class="cls-3"
              d="M39.57,62.67a5.87,5.87,0,0,0,1.28.58,6.11,6.11,0,0,0,1.27.41,6.29,6.29,0,0,0,1.44.16c.85,0,1.28-.59,1.28-1.77a2.84,2.84,0,0,0-.39-1.38,17.55,17.55,0,0,0-1-1.56c-.4-.57-.83-1.2-1.28-1.9a16.12,16.12,0,0,1-1.29-2.39,16.94,16.94,0,0,1-1-3,19.59,19.59,0,0,1,.09-8.2,9.84,9.84,0,0,1,1.31-3.12,6.09,6.09,0,0,1,2-1.9,4.79,4.79,0,0,1,2.41-.65A7.51,7.51,0,0,1,47,38l1.2.24,1.2.31v9.73l-.5-.11-.51-.1a2.72,2.72,0,0,0-.58,0l-.42,0a1.49,1.49,0,0,0-.47.13.91.91,0,0,0-.39.37,1.33,1.33,0,0,0-.17.73,2.21,2.21,0,0,0,.38,1c.25.41.55.9.92,1.45s.76,1.2,1.19,1.93a15.6,15.6,0,0,1,1.2,2.49A20.07,20.07,0,0,1,51,59.4a19,19,0,0,1,.38,4A22.36,22.36,0,0,1,51,67.64a12,12,0,0,1-1.21,3.49,6.73,6.73,0,0,1-2.11,2.34,5.34,5.34,0,0,1-3,.85,10.05,10.05,0,0,1-2-.18,10.74,10.74,0,0,1-1.6-.44,8.65,8.65,0,0,1-1.48-.62Zm2.34,6.24a4.33,4.33,0,0,0,.84.26l.82.19a5.14,5.14,0,0,0,.88.08A3.73,3.73,0,0,0,46,69.1,3.54,3.54,0,0,0,47.29,68a6.09,6.09,0,0,0,.93-2,10.84,10.84,0,0,0,.35-3,10,10,0,0,0-.4-2.86,17.15,17.15,0,0,0-1-2.6c-.42-.83-.87-1.63-1.34-2.39s-.92-1.53-1.34-2.31a15.89,15.89,0,0,1-1-2.34,7.36,7.36,0,0,1-.4-2.42,5.41,5.41,0,0,1,.64-2.89,2.23,2.23,0,0,1,2.06-1,3.62,3.62,0,0,1,.46,0l.46.08a2.3,2.3,0,0,0,.45.05V43a2.09,2.09,0,0,1-.42-.05,2.66,2.66,0,0,0-.44-.08,3.75,3.75,0,0,0-.48,0,3,3,0,0,0-2.48,1.28,6.54,6.54,0,0,0-1,4,9,9,0,0,0,.41,2.73,14.87,14.87,0,0,0,1,2.49c.41.82.86,1.61,1.33,2.37S46,57.19,46.41,58a14.56,14.56,0,0,1,1,2.41,8.42,8.42,0,0,1,.41,2.6,6.56,6.56,0,0,1-.91,3.8,2.86,2.86,0,0,1-2.49,1.3,5.28,5.28,0,0,1-1.73-.26,5.47,5.47,0,0,1-.81-.26Z"/>
        <path class="cls-3"
              d="M52.61,38.75h4.91l4.85,13.31,4.82-13.31h4.9V73.44H66.16V61l-3.79,10.4L58.55,61V73.44H52.61Zm3.51,30.53V45.4l6.25,17,6.21-17V69.28h.73V42.91h-.73L62.37,60,56.12,42.91H55.4V69.28Z"/>
        <path class="cls-3" d="M74.05,38.75h6.29V73.44H74.05Zm3.51,30.53V42.91h-.73V69.28Z"/>
        <path class="cls-3" d="M82.29,38.75h6.19V64.34h5.13v9.1H82.29Zm9.76,30.53V68H85.81V42.91h-.73V69.28Z"/>
        <path class="cls-3"
              d="M94.59,38.75h11v9.1h-5V51.7h4.93v8.63h-4.93v4h5.21v9.1H94.59Zm9.08,30.53V68H98.1V56.64h5.29V55.39H98.1V44.16h5.57V42.91h-6.3V69.28Z"/>
        <path class="cls-3"
              d="M107.41,38.75h7.27a5.31,5.31,0,0,1,4.53,2.36A9,9,0,0,1,120.49,44a15.92,15.92,0,0,1,.46,4.08,15.26,15.26,0,0,1-.22,2.83,16.36,16.36,0,0,1-.48,2,6.73,6.73,0,0,1-.69,1.56,7.53,7.53,0,0,1,1.11,1.88,15.18,15.18,0,0,1,.77,2.49,16.89,16.89,0,0,1,.35,3.7,19.65,19.65,0,0,1-.48,4.52A11.36,11.36,0,0,1,120,70.5a6.33,6.33,0,0,1-2.14,2.19,5.47,5.47,0,0,1-2.83.75h-7.58Zm6.8,30.53a3.92,3.92,0,0,0,3.62-2A10.26,10.26,0,0,0,119,62.05a9.66,9.66,0,0,0-.49-3.41,8,8,0,0,0-1-2,3.71,3.71,0,0,0-1.54-1.14,3.53,3.53,0,0,0,1.2-1.15A6.83,6.83,0,0,0,118,52.5a9.93,9.93,0,0,0,.38-3,8.87,8.87,0,0,0-1.12-4.94,3.46,3.46,0,0,0-3-1.66h-4V69.28Zm-3.29-14.41V44.16h3.29a2.73,2.73,0,0,1,2.6,1.48,8.18,8.18,0,0,1,.8,3.87,8.2,8.2,0,0,1-.8,3.88,2.73,2.73,0,0,1-2.6,1.48Zm0,13.16V56.12h3.26a3.74,3.74,0,0,1,1.6.34,3.55,3.55,0,0,1,1.3,1,5.17,5.17,0,0,1,.87,1.84,9.93,9.93,0,0,1,.32,2.71,7.39,7.39,0,0,1-1.12,4.58,3.66,3.66,0,0,1-3,1.4Zm4.29-18.72c0-1.6-.47-2.4-1.39-2.4h-.67V51.7h.67C114.74,51.7,115.21,50.9,115.21,49.31Zm-1.39,16c1.41,0,2.11-1,2.11-3s-.7-3-2.11-3h-.67v6Z"/>
        <path class="cls-3"
              d="M130.65,74.32a6.14,6.14,0,0,1-3.18-.83A6.9,6.9,0,0,1,125.05,71a13.64,13.64,0,0,1-1.55-4.22,29.13,29.13,0,0,1-.54-6v-22h5.93V60.33a7.49,7.49,0,0,0,.41,2.79,1.43,1.43,0,0,0,2.7,0,7.52,7.52,0,0,0,.4-2.79V38.75h6v22a29.13,29.13,0,0,1-.54,6A13.64,13.64,0,0,1,136.26,71a7,7,0,0,1-2.43,2.49A6.14,6.14,0,0,1,130.65,74.32Zm0-6.24q-4.19,0-4.18-7.64V42.91h-.73V60.44A14.22,14.22,0,0,0,127,67.12a4,4,0,0,0,7.29,0,14.08,14.08,0,0,0,1.28-6.68V42.91h-.75V60.44Q134.83,68.08,130.65,68.08Z"/>
        <path class="cls-3"
              d="M139.73,62.67a5.73,5.73,0,0,0,1.29.58,6,6,0,0,0,1.26.41,6.42,6.42,0,0,0,1.44.16c.85,0,1.28-.59,1.28-1.77a2.84,2.84,0,0,0-.39-1.38,17.55,17.55,0,0,0-1-1.56c-.4-.57-.82-1.2-1.28-1.9a16.11,16.11,0,0,1-1.28-2.39,16.94,16.94,0,0,1-1-3,17.37,17.37,0,0,1-.39-3.88,18,18,0,0,1,.47-4.32,10.32,10.32,0,0,1,1.31-3.12,6,6,0,0,1,2-1.9,4.76,4.76,0,0,1,2.41-.65,7.69,7.69,0,0,1,1.34.13l1.19.24,1.2.31v9.73l-.5-.11-.5-.1a2.82,2.82,0,0,0-.59,0l-.41,0a1.55,1.55,0,0,0-.48.13.91.91,0,0,0-.39.37,1.33,1.33,0,0,0-.17.73,2.21,2.21,0,0,0,.38,1c.25.41.56.9.92,1.45s.76,1.2,1.2,1.93a15.6,15.6,0,0,1,1.2,2.49,21.18,21.18,0,0,1,.92,3.18,19.08,19.08,0,0,1,.37,4,22.36,22.36,0,0,1-.39,4.29,11.75,11.75,0,0,1-1.21,3.49,6.81,6.81,0,0,1-2.1,2.34,5.36,5.36,0,0,1-3,.85,10.16,10.16,0,0,1-2-.18,11.09,11.09,0,0,1-1.6-.44,8.65,8.65,0,0,1-1.48-.62Zm2.35,6.24a4.24,4.24,0,0,0,.83.26l.82.19a5.14,5.14,0,0,0,.88.08,3.7,3.7,0,0,0,1.52-.34A3.54,3.54,0,0,0,147.45,68a6.09,6.09,0,0,0,.94-2,11.23,11.23,0,0,0,.35-3,10,10,0,0,0-.41-2.86,16.17,16.17,0,0,0-1-2.6c-.42-.83-.86-1.63-1.34-2.39s-.92-1.53-1.33-2.31a16,16,0,0,1-1-2.34,7.63,7.63,0,0,1-.4-2.42,5.41,5.41,0,0,1,.64-2.89,2.25,2.25,0,0,1,2.06-1,3.54,3.54,0,0,1,.46,0l.46.08a2.3,2.3,0,0,0,.45.05V43a2.18,2.18,0,0,1-.42-.05,2.54,2.54,0,0,0-.43-.08,3.91,3.91,0,0,0-.49,0,3,3,0,0,0-2.48,1.28,6.55,6.55,0,0,0-1,4,9,9,0,0,0,.4,2.73,15.76,15.76,0,0,0,1,2.49c.42.82.86,1.61,1.34,2.37s.92,1.54,1.34,2.32a15.46,15.46,0,0,1,1,2.41A8.41,8.41,0,0,1,148,63a6.64,6.64,0,0,1-.9,3.8,2.89,2.89,0,0,1-2.5,1.3,5.28,5.28,0,0,1-1.73-.26,5.34,5.34,0,0,1-.8-.26Z"/>
        <path class="cls-3"
              d="M155.23,47.85H151.8v-9.1h13v9.1h-3.43V73.44h-6.13Zm3.43,21.43V44.16h4V42.91H154v1.25h4V69.28Z"/>
        <path class="cls-3"
              d="M165.76,38.75h11v9.1h-5V51.7h4.93v8.63H171.7v4h5.21v9.1H165.76Zm9.09,30.53V68h-5.57V56.64h5.29V55.39h-5.29V44.16h5.57V42.91h-6.3V69.28Z"/>
        <path class="cls-3"
              d="M178.59,38.75H185a6.48,6.48,0,0,1,3.3.88,7.94,7.94,0,0,1,2.63,2.6,13.87,13.87,0,0,1,1.74,4.24,24.07,24.07,0,0,1,.63,5.8,21.45,21.45,0,0,1-.39,4.42,20,20,0,0,1-.86,3A10.9,10.9,0,0,1,190.79,62l3.49,11.44h-7l-2.79-8.79v8.79h-5.93Zm5.79,22.62A5.75,5.75,0,0,0,186.5,61l2.65,8.32H190l-2.79-8.74a6.62,6.62,0,0,0,2.4-3,13.43,13.43,0,0,0,.89-5.33,15,15,0,0,0-.47-4,9.4,9.4,0,0,0-1.3-2.89,5.45,5.45,0,0,0-1.93-1.76,5.06,5.06,0,0,0-2.43-.6h-3V69.28h.73V61.37Zm-2.28-1.25v-16h2.28a4.55,4.55,0,0,1,4,2.08,10.33,10.33,0,0,1,1.44,5.93,10.22,10.22,0,0,1-1.44,5.9,4.57,4.57,0,0,1-4,2Zm2.42-4.31h.31a2.29,2.29,0,0,0,1.8-.89,4.65,4.65,0,0,0,.73-3,4.69,4.69,0,0,0-.73-3,2.28,2.28,0,0,0-1.8-.88h-.31Z"/>
        <path class="cls-3"
              d="M194.33,62.67a5.87,5.87,0,0,0,1.28.58,6.91,6.91,0,0,0,2.71.57c.85,0,1.28-.59,1.28-1.77a2.84,2.84,0,0,0-.39-1.38,17.55,17.55,0,0,0-1-1.56c-.4-.57-.83-1.2-1.28-1.9a15.24,15.24,0,0,1-1.28-2.39,16.94,16.94,0,0,1-1-3,17.37,17.37,0,0,1-.39-3.88,17.53,17.53,0,0,1,.47-4.32,10.08,10.08,0,0,1,1.31-3.12,6.09,6.09,0,0,1,2-1.9,4.83,4.83,0,0,1,2.42-.65,7.49,7.49,0,0,1,1.33.13l1.2.24,1.2.31v9.73l-.5-.11-.5-.1a2.82,2.82,0,0,0-.59,0l-.42,0a1.57,1.57,0,0,0-.47.13.91.91,0,0,0-.39.37,1.33,1.33,0,0,0-.17.73,2.21,2.21,0,0,0,.38,1c.25.41.56.9.92,1.45s.76,1.2,1.2,1.93a16.51,16.51,0,0,1,1.19,2.49,20.07,20.07,0,0,1,.92,3.18,18.39,18.39,0,0,1,.38,4,22.36,22.36,0,0,1-.39,4.29,11.75,11.75,0,0,1-1.21,3.49,6.73,6.73,0,0,1-2.11,2.34,5.31,5.31,0,0,1-3,.85,10.08,10.08,0,0,1-2-.18,10.74,10.74,0,0,1-1.6-.44,8.65,8.65,0,0,1-1.48-.62Zm2.34,6.24a4.33,4.33,0,0,0,.84.26l.82.19a5.14,5.14,0,0,0,.88.08,3.7,3.7,0,0,0,1.52-.34A3.54,3.54,0,0,0,202.05,68a6.3,6.3,0,0,0,.94-2,11.27,11.27,0,0,0,.34-3,10,10,0,0,0-.4-2.86,16.17,16.17,0,0,0-1-2.6c-.42-.83-.87-1.63-1.34-2.39s-.92-1.53-1.34-2.31a15.89,15.89,0,0,1-1-2.34,7.36,7.36,0,0,1-.4-2.42,5.41,5.41,0,0,1,.64-2.89,2.24,2.24,0,0,1,2.06-1,3.62,3.62,0,0,1,.46,0l.46.08a2.3,2.3,0,0,0,.45.05V43a2.18,2.18,0,0,1-.42-.05,2.74,2.74,0,0,0-.43-.08,3.91,3.91,0,0,0-.49,0A3,3,0,0,0,198,44.08a6.54,6.54,0,0,0-1,4,9,9,0,0,0,.41,2.73,15.76,15.76,0,0,0,1,2.49c.42.82.86,1.61,1.34,2.37s.92,1.54,1.33,2.32a13.76,13.76,0,0,1,1,2.41,8.42,8.42,0,0,1,.41,2.6,6.56,6.56,0,0,1-.91,3.8,2.86,2.86,0,0,1-2.49,1.3,5.28,5.28,0,0,1-1.73-.26,5.47,5.47,0,0,1-.81-.26Z"/>
    </g>
</svg>