<?xml version="1.0" standalone="no"?>
<!DOCTYPE svg PUBLIC "-//W3C//DTD SVG 20010904//EN">
<svg version="1.0" xmlns="http://www.w3.org/2000/svg"
 width="1280.000000pt" height="960.000000pt" viewBox="0 0 1280.000000 960.000000"
 preserveAspectRatio="xMidYMid meet">
<metadata>
Created by potrace 1.15, written by Peter Selinger 2001-2017
</metadata>
<g transform="translate(0.000000,960.000000) scale(0.100000,-0.100000)"
fill="#ffffff" stroke="#ffffff">
<path d="M2455 8934 c-318 -41 -632 -160 -875 -332 -52 -37 -152 -123 -221
-192 -191 -190 -300 -370 -359 -590 -34 -128 -40 -373 -11 -490 42 -170 144
-324 281 -425 l50 -37 -41 -71 c-244 -433 -329 -917 -229 -1312 75 -298 247
-431 585 -452 210 -13 426 50 645 187 47 29 90 53 97 53 7 0 10 4 7 8 -5 8 25
28 38 26 3 -1 10 2 15 7 5 5 2 6 -7 2 -8 -4 -6 -1 4 8 10 8 22 13 26 11 4 -3
14 3 21 13 12 15 12 16 -1 7 -9 -5 -5 0 9 12 14 12 30 21 35 20 6 -1 10 3 9
10 -2 6 15 26 37 43 22 18 40 28 40 24 0 -5 33 25 74 65 41 41 74 77 73 80 -4
11 75 101 83 96 9 -6 23 12 26 32 3 18 40 63 48 58 3 -3 4 -2 1 1 -7 11 15 45
26 39 5 -4 9 -3 8 2 -4 22 2 34 14 27 6 -4 9 -4 5 1 -9 10 10 47 21 41 4 -3 8
0 8 7 0 22 35 67 47 60 6 -3 8 -3 4 2 -9 10 10 47 21 40 5 -2 8 3 7 13 0 9 5
16 12 14 8 -1 11 1 8 6 -3 5 2 18 10 28 9 10 12 12 8 4 -4 -8 -3 -11 1 -7 5 4
10 14 11 21 2 15 34 66 41 66 2 0 1 -6 -3 -12 -4 -7 -3 -9 1 -5 5 4 10 14 11
21 2 15 34 66 41 66 2 0 1 -6 -3 -12 -4 -8 -3 -10 2 -5 5 5 10 13 10 18 1 5 2
14 3 20 0 5 6 7 13 3 6 -4 8 -3 5 3 -8 13 37 75 48 65 5 -4 5 -2 2 4 -8 14 37
76 48 66 5 -4 5 -2 2 4 -8 14 37 76 48 66 5 -4 5 -2 2 4 -7 12 36 76 46 69 4
-3 5 -2 2 1 -7 11 15 45 26 39 5 -4 9 -3 8 2 -4 22 2 34 14 27 6 -4 9 -4 5 1
-11 11 11 47 24 39 6 -4 8 -3 5 3 -4 6 1 19 9 29 9 10 12 13 8 5 -5 -9 -3 -12
5 -7 6 4 9 11 6 16 -7 12 35 71 45 65 4 -3 7 3 6 13 0 9 5 16 12 14 6 -1 11 1
11 5 -4 22 2 33 14 27 6 -4 9 -4 5 1 -11 11 11 47 24 39 6 -4 8 -3 5 3 -4 6 1
19 9 29 9 10 12 12 8 4 -4 -9 -3 -12 2 -7 5 5 10 13 10 18 1 5 2 14 3 20 0 5
7 7 14 3 6 -4 9 -4 5 1 -10 11 11 47 23 40 5 -4 9 -3 8 2 -4 22 2 34 14 27 6
-4 9 -4 5 1 -10 11 11 47 23 40 5 -4 9 -3 8 2 -4 22 2 34 14 27 6 -4 9 -4 5 1
-11 11 11 47 24 39 6 -4 8 -3 5 3 -4 6 3 24 15 39 27 37 44 54 33 35 -5 -10
-4 -12 4 -7 6 4 9 11 6 15 -2 5 3 17 11 27 9 10 12 13 8 5 -5 -9 -3 -12 5 -7
6 4 9 11 7 15 -3 4 5 18 17 32 12 14 18 18 12 9 -9 -13 -8 -13 7 -1 10 7 16
17 13 21 -3 5 7 21 21 37 15 15 20 19 13 8 -13 -18 -13 -19 3 -6 10 7 16 17
13 21 -2 3 8 20 23 36 15 17 20 21 12 10 -15 -21 -15 -21 7 -2 13 10 20 22 18
27 -7 11 142 162 153 155 5 -3 20 7 33 22 l24 27 -25 -20 c-21 -16 -21 -15 3
8 15 15 32 25 37 22 5 -3 12 0 16 6 5 8 3 9 -7 4 -12 -8 -12 -6 0 9 8 9 20 15
27 12 7 -3 16 0 20 6 5 7 2 8 -7 4 -8 -4 -3 2 11 13 42 35 162 89 220 99 39 7
78 6 135 -3 111 -18 125 -9 125 80 0 60 -3 68 -35 104 -32 35 -46 42 -126 60
-108 25 -146 26 -222 6 -196 -51 -427 -249 -676 -580 -54 -71 -313 -452 -576
-845 -263 -393 -512 -758 -553 -810 -107 -135 -349 -373 -462 -452 -115 -82
-268 -160 -370 -188 -45 -13 -119 -24 -185 -27 -175 -8 -274 25 -367 125 -90
97 -126 208 -135 418 -8 193 13 332 83 541 49 149 234 510 255 497 5 -3 6 1 3
9 -3 8 0 18 7 23 8 5 10 3 4 -7 -8 -12 -6 -12 9 0 13 11 14 16 4 22 -20 13 -4
11 75 -11 151 -43 434 -63 546 -39 34 7 57 19 71 36 27 35 26 42 -15 59 -26
11 -84 14 -247 14 -210 0 -241 4 -331 39 -28 11 -28 12 -10 29 10 9 12 13 4 7
-8 -5 -4 5 9 23 23 31 39 45 24 20 -4 -7 -3 -8 5 -4 6 4 9 11 7 15 -3 4 7 21
22 37 15 17 20 21 12 10 -15 -21 -15 -21 7 -2 13 10 20 22 18 26 -2 4 10 23
28 42 17 19 23 23 12 9 l-20 -26 27 24 c15 13 25 27 23 31 -7 11 123 143 133
136 5 -3 24 11 43 32 l34 37 -35 -30 c-35 -30 -35 -29 2 8 21 21 42 36 47 33
4 -3 17 4 27 17 l19 22 -22 -19 c-13 -11 -23 -17 -23 -13 0 3 19 20 43 38 24
19 36 25 28 14 -8 -11 2 -3 22 18 20 21 41 36 47 32 6 -4 9 -1 8 7 -2 7 5 12
15 12 10 -1 16 1 13 4 -9 8 46 42 57 35 6 -3 7 -2 4 4 -8 12 164 95 243 117
94 26 210 37 282 27 85 -12 142 -42 175 -93 25 -36 28 -50 27 -117 -3 -210
-140 -464 -381 -707 -277 -278 -520 -406 -772 -406 -104 0 -171 13 -191 37 -8
10 -12 40 -11 82 l2 66 -33 -7 c-82 -15 -129 -143 -97 -261 56 -200 427 -190
751 21 40 26 78 47 85 47 7 0 10 4 7 9 -3 4 0 9 5 9 6 1 17 2 24 3 6 0 12 7
12 14 0 15 25 33 36 26 4 -2 11 1 15 7 5 8 2 10 -7 4 -8 -4 -1 4 16 18 16 14
33 23 36 21 4 -2 15 6 25 19 19 22 19 22 -2 7 -11 -8 -4 -1 15 17 19 17 38 30
41 28 8 -5 162 150 156 156 -3 3 8 21 25 40 17 19 25 25 18 14 -13 -18 -13
-19 3 -7 10 8 17 17 15 20 -3 13 35 62 44 56 5 -3 8 -2 7 3 -5 15 74 123 85
116 6 -3 7 -2 4 4 -4 6 7 31 24 57 49 78 95 176 125 266 24 74 28 101 28 210
1 108 -2 131 -21 172 -63 137 -215 197 -464 185 -235 -12 -445 -88 -680 -246
-183 -122 -363 -298 -502 -488 -21 -29 -42 -53 -47 -53 -11 0 -75 73 -106 121
-101 161 -100 418 3 694 42 113 112 245 146 276 17 16 32 36 33 46 3 22 151
166 163 159 5 -3 17 4 27 17 19 22 19 22 -1 7 -14 -10 -13 -7 3 8 13 12 27 20
32 17 4 -3 14 3 21 13 12 15 12 16 -1 7 -9 -5 -7 -2 3 7 11 10 24 15 30 11 6
-3 7 -1 3 5 -8 13 28 35 39 24 5 -4 5 -1 1 6 -7 11 5 17 27 13 5 -1 6 3 2 9
-6 10 9 15 30 10 5 -1 7 2 3 6 -11 10 30 37 44 28 6 -4 8 -3 5 3 -8 13 128 85
248 133 266 107 541 154 885 153 408 -1 531 -38 1295 -383 543 -246 831 -346
1093 -381 217 -28 417 24 547 143 94 85 115 158 80 276 -27 88 -136 205 -166
175 -13 -13 0 -42 42 -90 102 -118 13 -291 -180 -349 -82 -25 -249 -23 -375 6
-236 52 -480 144 -951 357 -740 336 -741 336 -1035 393 -264 50 -668 65 -915
34z m-1005 -828 c0 -2 -8 -10 -17 -17 -16 -13 -17 -12 -4 4 13 16 21 21 21 13z
m1190 -1551 c-41 -41 -77 -75 -79 -75 -3 0 28 34 69 75 41 41 77 75 79 75 3 0
-28 -34 -69 -75z m110 -948 c0 -1 -33 -34 -72 -72 l-73 -70 70 73 c64 67 75
77 75 69z"/>
<path d="M1525 8188 l-50 -53 53 50 c48 46 57 55 49 55 -1 0 -25 -24 -52 -52z"/>
<path d="M5316 7929 c-54 -29 -195 -167 -290 -285 -236 -292 -517 -735 -961
-1514 -212 -371 -255 -451 -274 -511 -22 -67 14 -108 103 -122 37 -6 43 -3 88
42 26 26 50 45 54 42 3 -3 4 -1 3 4 -5 17 21 56 33 49 6 -4 8 -3 5 3 -7 11 37
75 46 68 4 -3 5 -2 2 1 -7 11 15 45 26 39 5 -4 9 -3 8 2 -3 20 2 34 11 28 6
-4 10 -3 9 2 -3 19 2 34 9 29 5 -3 9 0 9 7 0 13 52 97 60 97 2 0 1 -5 -3 -12
-4 -7 -3 -8 5 -4 6 4 9 11 6 16 -3 4 4 19 15 31 11 13 19 20 20 15 0 -5 7 -3
15 4 8 7 13 16 10 20 -3 4 12 25 33 47 20 22 26 25 12 9 l-25 -31 32 29 c18
16 31 32 30 36 -3 13 93 120 106 117 7 -1 11 3 10 10 -3 13 83 89 96 86 5 -1
21 12 37 30 l29 32 -31 -25 c-16 -14 -11 -6 14 17 24 24 49 42 55 40 7 -1 11
3 10 9 -2 12 147 132 267 216 74 52 184 118 283 171 55 30 65 33 57 16 -6 -11
-16 -16 -22 -13 -7 4 -8 2 -4 -5 5 -7 -49 -105 -133 -244 -236 -392 -266 -465
-266 -657 0 -109 3 -131 23 -175 45 -97 114 -145 223 -153 57 -4 73 -1 120 22
102 52 249 168 453 359 88 83 118 105 113 87 -22 -80 -29 -187 -18 -242 32
-148 187 -269 351 -272 57 -1 76 4 140 36 41 21 99 56 129 79 30 23 62 42 70
44 9 1 16 7 16 13 0 15 51 53 60 44 5 -4 5 -2 2 4 -6 11 121 131 134 127 3 -1
24 17 45 40 l39 42 -45 -40 -45 -40 44 47 c24 26 48 45 53 42 5 -3 7 0 6 8 -2
7 3 12 10 10 8 -1 11 2 8 7 -3 5 2 15 11 22 12 10 14 10 9 2 -4 -7 -3 -13 3
-13 5 0 12 10 14 23 2 12 5 -31 6 -95 1 -141 21 -205 82 -268 50 -51 149 -100
205 -100 86 0 214 56 324 143 24 20 48 33 54 30 5 -3 6 -1 3 4 -7 11 82 90 96
85 5 -1 6 2 3 6 -3 5 4 18 17 28 21 19 21 19 7 -1 -12 -17 -12 -18 0 -7 8 7
15 16 15 20 0 13 118 142 125 137 4 -3 13 2 20 10 7 8 9 15 6 15 -4 0 -2 9 4
20 6 11 16 19 22 17 7 -1 12 4 13 10 0 13 164 221 192 245 14 12 15 11 5 -7
-22 -39 -150 -353 -172 -421 -53 -168 -6 -323 104 -341 33 -5 41 -2 72 28 19
18 34 29 34 24 0 -4 9 0 20 10 11 10 18 21 15 24 -2 4 6 18 18 32 12 14 18 18
12 9 -9 -13 -8 -13 7 -1 10 7 16 16 14 20 -7 10 12 36 25 36 7 0 13 8 15 18 3
25 24 48 37 40 6 -4 7 -1 3 6 -5 8 8 27 35 52 23 21 39 39 35 39 -4 0 -2 9 4
20 6 11 15 19 21 17 6 -1 13 7 15 17 1 11 13 29 25 40 l23 21 -19 -25 -20 -25
22 19 c13 10 20 22 18 26 -3 4 3 16 13 27 9 10 13 12 7 3 -9 -13 -8 -13 7 -1
10 7 16 16 14 20 -7 11 12 36 26 36 7 1 12 5 11 11 -1 5 13 26 30 45 18 19 25
26 17 15 -15 -21 -15 -21 7 -2 13 10 20 22 17 27 -2 4 8 21 23 37 15 15 21 19
13 8 -15 -21 -15 -21 7 -2 13 10 20 22 18 26 -2 4 10 23 28 42 17 19 23 23 12
9 l-20 -26 27 24 c15 13 25 27 23 31 -6 10 55 81 64 75 5 -2 16 4 26 15 10 11
14 20 9 20 -5 0 27 36 70 79 44 44 84 79 90 78 5 -1 11 5 11 13 0 8 7 14 14
12 7 -1 10 2 7 7 -7 11 72 77 86 73 5 -1 7 1 4 6 -5 8 59 64 157 137 l38 28
-37 -64 c-20 -35 -87 -145 -148 -244 -134 -219 -195 -340 -242 -482 -31 -93
-37 -125 -41 -228 -7 -153 4 -196 62 -252 33 -31 57 -44 98 -53 152 -34 317
60 615 354 l162 160 -41 -88 c-82 -177 -104 -269 -75 -324 29 -55 130 -130
160 -119 7 3 46 70 86 149 99 192 179 341 192 353 8 7 8 5 3 -5 -8 -13 -7 -13
8 -1 18 14 24 36 7 26 -6 -3 -7 1 -4 10 4 9 8 15 9 13 1 -2 30 -54 64 -117 83
-152 135 -223 228 -312 124 -118 247 -167 393 -156 118 9 278 74 419 170 25
17 50 30 57 30 7 0 11 4 8 8 -6 11 31 30 41 21 3 -4 5 -2 3 4 -3 12 54 65 74
68 21 3 39 17 33 26 -6 9 59 61 69 55 3 -3 4 -2 1 2 -3 4 34 48 83 97 124 127
258 282 277 323 21 43 16 67 -13 71 -25 4 -28 1 -216 -201 -246 -267 -539
-476 -725 -517 -229 -52 -411 142 -506 537 -15 61 -15 75 -4 89 14 17 26 16
114 -17 49 -18 87 -23 212 -27 134 -4 164 -2 245 18 150 36 312 108 437 192
25 17 52 31 61 33 8 1 15 6 15 11 1 12 88 99 97 96 5 -1 7 1 6 6 -1 4 10 28
26 55 70 118 86 234 44 325 -34 72 -141 174 -211 200 -138 52 -332 16 -650
-120 -77 -33 -142 -57 -145 -53 -3 3 3 8 15 11 12 3 24 13 28 21 4 12 2 13 -8
7 -7 -5 -1 2 13 16 14 14 19 21 11 15 -8 -5 -4 5 9 23 23 31 39 45 24 20 -4
-7 -3 -8 5 -4 6 4 9 11 6 15 -2 5 3 17 11 27 9 10 12 13 8 5 -5 -9 -3 -12 5
-7 6 4 9 11 7 15 -3 4 5 18 17 32 12 14 18 18 12 9 -9 -13 -8 -13 7 -1 10 7
16 16 13 20 -2 4 6 18 18 32 12 14 18 18 12 9 -9 -13 -8 -13 7 -1 10 7 16 17
13 21 -3 5 7 21 21 37 15 15 20 19 13 8 -13 -18 -13 -19 3 -6 10 7 16 16 13
20 -2 4 6 18 18 32 12 14 18 18 12 9 -9 -13 -8 -13 7 -1 10 7 16 17 13 21 -2
3 10 22 27 41 16 19 24 25 17 14 -13 -18 -13 -19 3 -6 10 7 16 17 13 21 -6 10
21 45 37 45 7 1 12 5 11 11 -1 6 8 21 20 35 12 14 18 18 12 9 -9 -13 -8 -13 7
-1 10 7 16 17 13 21 -3 4 3 16 13 27 9 10 13 12 7 3 -9 -13 -8 -13 7 -1 10 7
16 16 14 20 -3 4 5 18 16 31 11 14 16 19 12 11 -5 -9 -3 -12 5 -7 6 4 9 11 7
15 -7 11 11 36 26 36 7 0 14 6 14 13 1 6 2 17 3 23 0 5 6 7 11 4 6 -4 9 -3 8
2 -1 4 10 30 26 56 24 41 27 52 17 73 -6 14 -27 32 -46 40 -44 18 -138 18
-173 0 -44 -23 -220 -211 -329 -351 -180 -233 -518 -720 -733 -1059 -34 -55
-90 -127 -124 -161 -34 -33 -106 -112 -161 -174 -302 -340 -616 -560 -693
-483 -43 43 -37 190 12 313 35 84 107 210 117 203 5 -3 7 1 4 8 -3 7 5 24 16
38 11 14 17 19 13 11 -5 -9 -3 -12 5 -7 6 4 9 12 6 17 -7 11 55 100 65 94 4
-3 7 3 6 13 0 10 5 16 14 14 8 -2 12 0 8 3 -11 11 11 47 24 39 6 -4 8 -3 5 3
-4 6 1 19 11 30 9 10 13 12 7 3 -9 -13 -8 -13 7 -2 9 8 15 19 12 26 -3 7 3 19
12 27 15 12 17 12 9 0 -5 -10 -4 -12 4 -7 6 4 9 11 6 15 -2 5 3 17 11 27 9 10
12 13 8 5 -5 -9 -3 -12 5 -7 6 4 9 11 7 15 -3 4 7 21 22 37 15 17 20 21 12 10
-15 -21 -15 -21 7 -2 13 10 20 22 18 26 -3 4 3 16 13 27 9 10 13 12 7 3 -9
-13 -8 -13 7 -1 10 7 16 17 13 21 -3 4 3 16 13 27 9 10 13 12 7 3 -9 -13 -8
-13 7 -2 9 8 15 19 12 26 -3 7 3 19 12 27 15 12 17 12 9 0 -5 -10 -4 -12 4 -7
6 4 9 11 6 15 -2 5 3 17 11 27 9 10 12 13 8 5 -5 -9 -3 -12 5 -7 6 4 9 11 6
15 -2 5 3 17 11 27 9 10 12 12 8 4 -4 -8 -3 -11 1 -7 5 4 10 14 11 22 1 8 12
28 23 44 29 40 36 82 21 126 -17 53 -59 75 -141 75 -55 0 -77 -6 -145 -39
-201 -98 -522 -372 -1137 -970 l-98 -96 25 69 c54 143 278 542 298 530 5 -3 8
-2 7 3 -3 20 2 34 11 28 6 -4 10 -3 9 2 -3 20 2 34 11 28 6 -4 10 -3 9 2 -4
22 2 34 14 27 6 -4 9 -4 5 1 -11 11 11 47 24 39 7 -4 8 -3 4 4 -9 15 23 64 37
55 5 -3 7 -2 4 4 -4 6 9 32 28 59 28 39 35 58 35 96 0 39 -5 50 -31 72 -41 35
-115 39 -156 7 -23 -17 -281 -326 -520 -621 -77 -96 -190 -228 -249 -292 -60
-64 -131 -143 -159 -174 -72 -83 -228 -209 -309 -249 -71 -36 -129 -45 -168
-24 -23 12 -57 83 -58 119 0 81 71 252 185 439 108 178 261 401 270 394 4 -5
6 -3 2 2 -7 12 76 148 86 140 4 -3 5 -2 3 1 -3 4 7 29 21 56 23 44 24 52 12
75 -8 15 -32 40 -54 56 -35 25 -46 28 -97 25 l-57 -4 -27 63 c-46 108 -107
138 -268 131 -200 -10 -409 -107 -656 -305 -115 -92 -308 -287 -409 -413 -46
-57 -92 -111 -101 -119 -10 -9 -65 -70 -123 -136 -262 -300 -490 -476 -637
-492 -46 -4 -59 -2 -80 15 -22 18 -25 27 -24 89 0 37 6 86 13 108 26 78 94
215 104 208 6 -3 7 -1 3 5 -9 14 47 105 59 95 4 -5 5 -2 1 4 -9 15 37 86 49
75 5 -4 5 -2 2 4 -4 6 1 20 9 30 9 10 12 12 8 4 -4 -9 -3 -12 2 -7 5 5 9 16 9
25 0 9 6 16 13 14 8 -1 11 1 8 6 -3 5 2 18 10 28 9 10 12 13 8 5 -5 -9 -3 -12
5 -7 6 4 9 11 6 15 -2 5 3 17 11 27 9 10 12 12 8 4 -4 -8 -3 -11 1 -7 5 4 10
14 11 21 2 15 34 66 41 66 2 0 1 -5 -3 -12 -5 -7 -3 -8 5 -4 7 5 10 10 7 13
-10 10 15 44 27 37 7 -4 9 -4 5 1 -11 11 11 47 24 39 6 -4 8 -3 5 3 -4 6 1 19
9 29 9 10 12 13 8 5 -5 -9 -3 -12 5 -7 6 4 9 11 6 15 -2 5 3 17 11 27 9 10 12
13 8 5 -5 -10 -3 -12 5 -7 7 5 10 10 7 13 -9 9 14 44 25 38 5 -4 9 -3 8 2 -4
22 2 34 14 27 6 -4 9 -4 5 1 -11 11 11 47 24 39 6 -4 8 -3 5 3 -4 6 1 19 9 29
9 10 12 12 8 4 -4 -8 -3 -11 1 -7 5 4 10 14 11 22 1 8 12 28 24 45 36 51 8
129 -55 156 -72 30 -159 13 -305 -61 -138 -69 -292 -172 -852 -564 -65 -45
-122 -80 -128 -76 -6 4 -9 1 -8 -6 2 -6 -3 -14 -10 -16 -7 -3 2 25 22 63 47
93 131 216 140 207 4 -5 7 -3 6 2 -4 19 0 30 21 55 11 14 17 18 13 10 -4 -8
-3 -11 1 -7 5 4 10 14 11 21 2 15 34 66 41 66 2 0 1 -6 -3 -12 -4 -7 -3 -9 1
-5 5 4 10 14 11 21 4 25 36 66 48 59 6 -3 8 -3 4 2 -11 11 11 47 24 39 6 -4 8
-3 5 2 -8 13 9 39 25 39 7 0 12 8 10 16 -1 9 5 23 15 30 14 12 16 12 8 0 -5
-10 -4 -12 4 -7 6 4 9 11 6 15 -2 5 3 17 11 27 9 10 12 13 8 5 -5 -9 -3 -12 5
-7 6 4 9 11 6 16 -3 4 3 16 13 27 9 10 13 12 7 3 -9 -13 -8 -13 7 -1 10 7 16
17 13 21 -2 4 3 16 11 26 9 10 12 13 8 5 -5 -9 -3 -12 5 -7 6 4 9 11 7 15 -8
12 24 52 36 45 6 -4 8 -3 5 3 -4 6 1 19 9 29 9 10 12 13 8 5 -5 -9 -3 -12 5
-7 6 4 9 11 7 15 -7 11 11 36 26 36 7 0 12 8 10 16 -1 9 5 23 15 30 14 12 16
12 8 0 -5 -10 -4 -12 4 -7 6 4 9 11 6 15 -2 5 3 17 11 27 9 10 12 13 8 5 -5
-9 -3 -12 5 -7 6 4 9 11 6 15 -2 5 3 17 11 27 9 10 12 13 8 5 -5 -9 -3 -12 5
-7 6 4 9 11 6 15 -2 5 3 17 11 27 9 10 12 13 8 5 -5 -9 -3 -12 5 -7 6 4 9 11
6 15 -2 5 3 17 11 27 9 10 12 12 8 4 -4 -9 -3 -12 2 -7 5 5 10 13 10 18 1 5 2
14 3 20 0 5 7 7 14 3 6 -4 9 -4 5 1 -11 12 11 47 25 39 7 -4 9 -4 5 1 -11 11
11 47 24 39 7 -4 8 -3 4 5 -7 11 27 65 36 56 3 -3 5 1 5 8 0 7 23 48 52 91 29
42 63 100 76 128 22 48 23 54 9 87 -29 71 -70 86 -138 50z m6035 -889 c19 -5
48 -24 65 -41 25 -26 29 -37 28 -84 -4 -162 -214 -340 -579 -489 -184 -75
-258 -91 -414 -89 -141 2 -191 8 -191 24 0 6 5 7 12 3 7 -4 8 -3 4 5 -11 16
34 106 87 177 54 71 144 157 156 150 5 -3 15 2 22 12 13 15 12 16 -3 3 -10 -7
-18 -11 -18 -8 0 12 113 86 123 80 5 -3 7 -2 4 4 -8 13 189 126 306 174 111
45 189 68 272 79 87 11 87 11 126 0z m-3981 -85 c15 -8 30 -21 33 -29 7 -18
-457 -664 -594 -828 -115 -137 -265 -286 -364 -360 -105 -80 -189 -119 -269
-125 -59 -5 -65 -4 -94 23 -81 74 -55 266 64 459 24 39 49 69 56 67 7 -2 10 0
6 3 -11 11 11 47 24 39 6 -4 8 -3 5 4 -9 13 39 71 165 199 55 57 105 100 111
96 5 -3 7 -1 4 4 -8 12 100 116 113 108 4 -2 16 5 26 18 l19 22 -22 -19 c-13
-11 -23 -17 -23 -14 0 3 21 23 48 44 26 21 40 29 32 18 -8 -11 1 -3 20 17 45
49 150 120 163 112 5 -3 7 -2 4 4 -3 5 26 28 66 51 179 102 320 132 407 87z
m1450 -549 c0 -2 -8 -10 -17 -17 -16 -13 -17 -12 -4 4 13 16 21 21 21 13z
m-670 -800 c0 -2 -8 -10 -17 -17 -16 -13 -17 -12 -4 4 13 16 21 21 21 13z"/>
<path d="M10440 6625 c-24 -25 -42 -45 -39 -45 3 0 25 20 49 45 24 25 42 45
39 45 -3 0 -25 -20 -49 -45z"/>
<path d="M10369 6543 c-13 -16 -12 -17 4 -4 9 7 17 15 17 17 0 8 -8 3 -21 -13z"/>
<path d="M6559 6553 l-24 -28 28 24 c15 14 27 26 27 28 0 8 -8 1 -31 -24z"/>
<path d="M6324 6318 l-29 -33 33 29 c30 28 37 36 29 36 -2 0 -16 -15 -33 -32z"/>
<path d="M6264 6248 l-19 -23 23 19 c21 18 27 26 19 26 -2 0 -12 -10 -23 -22z"/>
<path d="M4204 7528 l-19 -23 23 19 c21 18 27 26 19 26 -2 0 -12 -10 -23 -22z"/>
<path d="M8026 6222 l-19 -27 24 22 c12 12 21 24 18 27 -2 2 -13 -8 -23 -22z"/>
<path d="M10403 6235 c-9 -24 1 -27 15 -5 8 13 8 20 2 20 -6 0 -13 -7 -17 -15z"/>
<path d="M6425 5320 c-353 -36 -951 -257 -1275 -470 -348 -230 -662 -526 -833
-785 -236 -360 -268 -740 -84 -998 58 -80 106 -123 177 -155 49 -23 71 -26
195 -30 114 -3 157 0 232 16 119 27 275 88 388 153 50 29 96 52 103 52 6 0 10
3 7 5 -8 9 48 41 58 35 6 -3 7 -1 4 4 -7 11 20 28 36 24 5 -1 6 3 3 8 -6 9 22
26 37 22 5 -1 6 3 2 8 -5 9 29 35 48 36 4 0 6 3 5 6 -2 4 20 31 49 61 55 59
123 178 100 178 -12 0 -256 -154 -415 -263 -251 -172 -468 -225 -687 -166
-112 30 -200 104 -236 197 -26 67 -31 222 -10 312 37 160 180 468 205 443 4
-4 7 -3 6 2 -5 23 1 36 13 29 6 -4 9 -4 5 1 -9 10 10 47 21 40 5 -2 8 3 7 13
0 9 5 16 12 14 8 -1 11 2 8 7 -3 5 2 17 12 28 9 10 13 12 7 3 -9 -13 -8 -13 7
-1 10 7 16 17 13 21 -3 5 5 19 17 32 15 16 18 17 8 3 -15 -20 -15 -20 7 -1 13
10 20 23 17 28 -8 12 192 212 204 204 5 -3 18 4 28 17 19 22 19 22 -1 7 -14
-10 -13 -7 3 8 13 12 27 20 32 17 4 -3 14 3 21 13 12 15 12 16 -1 7 -9 -5 -7
-2 3 7 11 10 23 16 27 13 5 -3 12 0 16 6 5 8 3 9 -7 4 -12 -8 -12 -6 0 9 8 9
20 15 27 12 7 -3 16 0 20 6 5 7 2 8 -7 3 -8 -4 0 4 16 19 17 14 35 23 42 21 7
-2 15 1 19 7 5 7 2 8 -7 4 -8 -4 -3 2 11 13 24 20 36 25 53 22 5 -1 6 3 2 9
-6 10 9 15 30 10 5 -1 7 2 2 6 -10 10 44 45 57 37 6 -3 8 -3 4 2 -11 12 29 38
45 29 6 -4 9 -3 4 1 -9 11 43 46 57 38 6 -3 8 -3 4 2 -9 10 38 40 228 146 167
93 344 175 485 224 279 97 534 105 706 22 127 -61 123 -183 -14 -448 -152
-295 -327 -533 -910 -1241 -295 -359 -378 -488 -448 -703 -58 -176 -66 -371
-21 -478 71 -172 288 -193 572 -58 56 27 106 46 110 43 4 -4 4 -1 0 6 -4 6 -3
12 3 12 5 0 39 20 74 44 36 25 68 42 73 38 4 -4 4 -2 0 5 -7 12 32 45 44 38 4
-3 14 3 21 13 13 16 12 16 -6 3 -11 -7 -5 1 14 17 19 17 37 29 41 27 4 -2 18
8 31 23 l24 27 -30 -25 -30 -25 29 32 c16 18 34 30 39 26 6 -3 7 -1 4 4 -8 13
77 85 88 75 5 -4 5 -2 2 4 -8 13 336 357 348 347 4 -4 5 -3 2 3 -4 6 3 20 16
30 21 19 21 19 7 -1 -14 -18 -14 -19 2 -7 10 8 16 18 15 22 -3 13 143 170 156
167 7 -1 11 3 10 9 -1 6 15 26 35 45 34 31 35 32 12 4 l-25 -30 27 24 c15 13
26 27 25 31 -4 13 134 160 144 154 5 -3 8 -1 7 5 -3 9 271 305 514 556 53 55
106 111 117 125 32 39 -72 -152 -471 -865 -204 -363 -406 -725 -451 -805 -440
-791 -826 -1250 -1162 -1382 -70 -27 -92 -31 -180 -32 -83 0 -108 4 -150 22
-98 45 -131 92 -194 283 l-32 97 -37 4 c-96 12 -137 -27 -130 -125 5 -84 38
-145 118 -220 127 -119 239 -168 396 -175 190 -8 389 62 603 212 36 24 69 42
75 39 5 -3 6 -1 3 4 -7 11 20 28 36 24 5 -1 6 3 3 8 -7 11 33 43 44 36 4 -2
18 8 31 23 l24 27 -26 -20 c-14 -11 -5 -1 20 22 25 23 48 40 50 37 6 -6 41 27
37 35 -2 3 17 29 42 57 26 27 40 41 32 30 -15 -21 -15 -21 8 -2 12 11 20 21
17 24 -7 7 24 47 38 47 6 1 11 5 10 11 -1 5 8 21 19 34 11 14 16 19 12 11 -5
-10 -3 -12 5 -7 7 5 10 10 7 13 -10 10 15 44 26 37 6 -4 8 -3 5 3 -4 6 3 24
15 39 27 37 44 54 33 35 -5 -10 -4 -12 4 -7 6 4 9 12 6 17 -8 12 30 61 40 51
3 -4 6 -2 5 3 -4 20 0 36 8 31 5 -3 9 0 9 7 0 7 86 154 190 327 104 173 200
334 213 357 13 23 28 39 33 36 6 -3 7 -1 4 4 -4 6 79 156 184 334 458 775
1037 1767 1084 1860 39 74 -5 112 -112 98 -138 -19 -247 -108 -412 -337 -211
-294 -485 -605 -876 -997 -363 -363 -618 -588 -967 -851 -323 -243 -447 -295
-519 -218 -36 38 -31 156 10 281 37 114 140 335 153 327 5 -3 7 -2 6 3 -4 16
14 53 23 47 5 -3 9 -2 8 3 -3 17 2 29 22 53 11 14 17 18 13 10 -4 -9 -3 -12 2
-7 5 5 9 16 9 25 0 9 6 17 13 17 6 0 12 5 13 10 2 22 21 45 31 39 6 -4 8 -3 5
3 -3 5 6 23 21 39 15 17 20 21 12 10 -15 -21 -15 -21 7 -2 13 10 20 22 18 26
-3 4 3 16 13 27 9 10 13 12 7 3 -9 -13 -8 -13 7 -1 10 7 16 16 14 20 -7 11 12
36 26 36 7 0 13 5 14 10 2 24 17 44 28 38 6 -3 8 -3 4 2 -9 10 18 50 35 50 6
1 11 5 10 11 -1 5 8 21 19 34 11 14 16 19 12 11 -5 -9 -3 -12 5 -7 6 4 9 11 7
15 -6 10 11 36 24 36 5 0 9 2 8 5 -3 9 22 50 30 47 4 -1 7 0 8 3 3 18 26 49
35 47 6 -1 13 6 14 17 2 10 9 24 16 30 9 8 10 8 4 -3 -6 -10 -4 -12 4 -7 7 5
10 10 7 13 -10 10 15 44 26 37 6 -4 8 -3 5 2 -8 13 9 39 25 39 7 0 14 6 14 13
3 23 5 27 30 57 15 17 23 24 19 16 -6 -9 -4 -12 4 -7 6 4 9 11 6 15 -7 12 41
72 50 63 5 -4 6 -2 2 3 -3 6 4 22 15 35 11 14 16 18 12 10 -4 -9 -3 -12 2 -7
5 5 10 13 10 18 1 5 2 14 3 20 0 5 6 7 13 3 6 -4 8 -3 5 3 -8 13 37 75 48 65
5 -4 5 -2 2 4 -8 13 57 106 68 96 5 -4 5 -2 2 4 -8 14 87 156 98 147 4 -5 5
-3 2 3 -3 6 15 44 40 85 74 119 161 307 179 388 54 242 -58 402 -316 454 -97
20 -264 27 -365 17z m115 -3954 c0 -2 -8 -10 -17 -17 -16 -13 -17 -12 -4 4 13
16 21 21 21 13z"/>
<path d="M4790 4333 l-65 -68 68 65 c37 35 67 66 67 67 0 8 -10 -2 -70 -64z"/>
<path d="M7859 4023 l-34 -38 38 34 c34 33 42 41 34 41 -2 0 -19 -17 -38 -37z"/>
<path d="M9220 3778 c-148 -56 -356 -239 -564 -498 -201 -252 -342 -483 -392
-649 -22 -69 -25 -98 -22 -175 3 -79 7 -100 35 -157 38 -77 104 -143 159 -158
53 -15 159 -14 219 3 53 14 142 56 188 88 15 11 35 21 45 23 9 1 16 8 15 14
-3 10 33 35 52 36 6 0 10 5 10 10 0 6 35 45 78 88 42 43 77 75 77 71 0 -4 9 1
20 11 11 10 18 21 15 24 -2 4 6 18 18 32 12 14 18 18 12 9 -9 -13 -8 -13 8 -1
9 8 15 16 13 19 -7 7 22 47 34 47 6 0 9 2 8 5 -4 14 24 50 35 44 7 -4 9 -4 5
1 -11 12 11 47 25 39 7 -4 9 -4 5 1 -11 11 11 47 24 39 6 -4 8 -3 5 3 -7 11
37 76 45 68 2 -3 5 1 5 7 0 7 21 48 48 91 56 93 94 195 95 257 1 34 3 40 10
25 5 -11 9 -14 9 -7 1 6 0 14 -1 16 -2 3 57 35 131 72 125 62 235 143 218 160
-3 3 -46 -11 -94 -32 -77 -33 -98 -38 -168 -38 -66 -1 -79 2 -76 14 11 44 12
241 1 275 -16 49 -66 104 -115 126 -56 26 -163 24 -235 -3z m65 -450 c33 -44
75 -92 92 -107 23 -18 33 -34 33 -54 0 -96 -170 -355 -395 -603 -90 -98 -214
-201 -290 -237 -179 -88 -264 -38 -253 150 4 65 11 93 47 168 38 81 184 315
197 315 3 0 2 -5 -2 -12 -4 -7 -3 -8 5 -4 6 4 9 11 6 16 -13 20 274 348 293
336 5 -3 18 4 28 17 l19 22 -24 -20 c-14 -11 -21 -14 -17 -8 13 24 96 74 109
67 6 -4 9 -3 4 1 -9 10 38 33 68 34 14 0 39 -26 80 -81z m-135 -822 c0 -2 -8
-10 -17 -17 -16 -13 -17 -12 -4 4 13 16 21 21 21 13z"/>
<path d="M8954 3238 l-19 -23 23 19 c12 11 22 21 22 23 0 8 -8 2 -26 -19z"/>
<path d="M8869 3143 l-24 -28 28 24 c15 14 27 26 27 28 0 8 -8 1 -31 -24z"/>
<path d="M11405 3651 c-86 -40 -231 -189 -458 -471 -462 -573 -704 -817 -914
-920 -81 -40 -170 -52 -189 -25 -20 27 -17 103 7 181 28 91 127 286 141 278 7
-4 8 -2 4 4 -9 14 18 55 28 44 4 -4 7 -2 6 3 -4 20 0 36 9 31 5 -3 8 2 7 12 0
9 4 16 11 15 7 -2 10 3 7 11 -3 8 0 17 7 22 8 5 10 3 4 -7 -5 -8 -4 -11 1 -6
5 5 9 16 9 25 0 9 6 16 12 15 7 -2 12 0 12 5 -3 20 2 33 11 27 6 -4 10 -3 9 2
-4 22 2 34 14 27 6 -4 9 -4 5 1 -11 11 11 47 24 39 6 -4 8 -3 5 3 -4 6 1 19 9
29 9 10 12 12 8 4 -4 -9 -3 -12 2 -7 5 5 9 16 9 25 0 9 6 16 13 14 8 -1 11 1
8 6 -3 5 2 18 10 28 9 10 12 13 8 5 -5 -9 -3 -12 5 -7 6 4 9 12 5 17 -3 6 11
26 33 46 21 20 31 33 23 28 -8 -5 -4 4 9 20 12 17 28 30 33 30 6 0 12 9 14 19
1 10 11 26 20 35 17 15 17 15 3 -4 -13 -18 -13 -19 3 -6 10 7 15 17 13 22 -3
4 7 21 22 37 15 15 21 19 13 8 -15 -21 -15 -21 7 -2 13 10 20 22 17 27 -2 4
24 37 58 72 56 56 58 57 13 8 l-50 -56 57 54 c32 30 56 57 53 59 -2 3 5 16 15
30 37 47 21 104 -35 128 -74 30 -179 6 -260 -60 -40 -33 -652 -745 -737 -858
-45 -59 -50 -98 -14 -98 17 0 59 35 150 128 l127 127 -53 -90 c-64 -110 -121
-241 -138 -316 -31 -137 3 -280 81 -342 44 -35 126 -46 209 -28 62 13 172 67
245 119 27 19 55 35 62 35 7 0 10 4 7 8 -5 9 36 35 49 31 5 -1 6 2 3 7 -4 5 7
19 24 31 16 12 30 18 30 14 0 -4 9 1 20 11 11 10 18 21 15 25 -2 3 39 49 91
101 51 51 94 90 94 85 0 -5 9 -1 20 9 10 9 18 21 17 25 -3 11 74 103 80 97 2
-3 -10 -58 -28 -124 -26 -93 -33 -138 -33 -213 -1 -111 14 -145 86 -196 60
-43 99 -54 187 -54 87 0 134 18 240 93 36 25 69 43 73 41 5 -3 7 -1 6 4 -2 6
42 48 97 94 209 174 548 522 561 575 8 31 -16 58 -44 49 -11 -4 -78 -71 -150
-149 -142 -154 -304 -305 -428 -398 -149 -112 -300 -187 -351 -174 -47 11 -65
90 -42 194 12 57 92 217 107 214 5 -1 9 5 8 15 0 9 5 16 12 14 8 -1 11 2 7 8
-7 11 29 62 39 55 3 -3 4 -2 1 1 -8 12 16 45 27 38 6 -4 8 -3 5 3 -4 6 3 24
15 39 27 37 44 54 33 35 -5 -10 -4 -12 4 -7 6 4 9 11 6 15 -2 5 3 17 11 27 9
10 12 13 8 5 -5 -9 -3 -12 5 -7 6 4 9 11 7 15 -7 10 11 36 25 36 7 0 13 8 15
19 1 10 8 24 15 30 9 8 10 8 4 -3 -5 -10 -4 -12 4 -7 6 4 9 11 7 14 -2 4 5 19
16 32 11 14 16 19 12 11 -5 -9 -3 -12 5 -7 6 4 9 11 6 16 -3 5 7 21 21 37 15
15 20 19 13 8 -13 -18 -13 -19 3 -6 10 7 16 17 13 21 -3 4 3 16 13 27 9 10 13
12 7 3 -9 -13 -8 -13 7 -1 10 7 16 16 14 20 -7 11 12 36 26 36 7 1 12 6 11 11
-1 6 10 24 25 41 15 16 20 20 12 9 -15 -21 -15 -21 8 -2 12 11 20 21 17 24 -7
7 24 47 38 47 6 0 12 5 13 10 2 24 17 44 28 38 6 -3 8 -3 4 1 -4 5 14 38 38
74 40 57 45 70 39 101 -13 71 -50 101 -140 115 -29 4 -51 1 -80 -13z m-795
-1055 c0 -2 -8 -10 -17 -17 -16 -13 -17 -12 -4 4 13 16 21 21 21 13z m-220
-220 c0 -2 -8 -10 -17 -17 -16 -13 -17 -12 -4 4 13 16 21 21 21 13z"/>
<path d="M6700 2813 l-155 -158 158 155 c146 144 162 160 154 160 -1 0 -72
-71 -157 -157z"/>
<path d="M10670 2665 c-7 -9 -8 -15 -2 -15 5 0 12 7 16 15 3 8 4 15 2 15 -2 0
-9 -7 -16 -15z"/>
</g>
</svg>
